Coordinates
version=1
nRows=27
nColumns=12
inDegrees=yes

Units are S.I. units (second, meters, Newtons, ...)
Angles are in degrees

endheader
time	SC_y	SC_z	SC_x	AC_y	AC_z	AC_x	GH_y	GH_z	GH_yy	EL_x	PS_y
       0.0              -16.52         -3.969          46.16          41.63         -4.131         -18.98          -25.7         -18.34         -157.9          51.56          68.95
    0.0169              -16.52         -3.969          46.16          41.63         -4.133         -18.97         -25.72         -18.34         -157.8          51.56          68.95
    0.0338              -16.52         -3.968          46.16          41.63         -4.134         -18.97         -25.74         -18.34         -157.8          51.56          68.94
   0.05071              -16.53         -3.967          46.15          41.63         -4.135         -18.96         -25.76         -18.34         -157.8          51.56          68.94
   0.06761              -16.53         -3.967          46.15          41.63         -4.137         -18.96         -25.79         -18.34         -157.7          51.57          68.94
   0.08451              -16.54         -3.966          46.14          41.63         -4.138         -18.95         -25.81         -18.34         -157.7          51.57          68.93
    0.1014              -16.54         -3.965          46.13          41.63          -4.14         -18.95         -25.83         -18.33         -157.6          51.57          68.93
    0.1183              -16.54         -3.965          46.13          41.63         -4.142         -18.94         -25.86         -18.33         -157.6          51.58          68.92
    0.1352              -16.55         -3.964          46.12          41.63         -4.144         -18.93         -25.89         -18.33         -157.5          51.58          68.92
    0.1521              -16.56         -3.963          46.11          41.64         -4.146         -18.93         -25.92         -18.33         -157.5          51.58          68.91
     0.169              -16.56         -3.962           46.1          41.64         -4.148         -18.92         -25.96         -18.33         -157.4          51.59          68.91
    0.1859              -16.57         -3.961           46.1          41.64         -4.151         -18.91         -25.99         -18.32         -157.4          51.59           68.9
    0.2028              -16.58          -3.96          46.09          41.64         -4.153          -18.9         -26.03         -18.32         -157.3           51.6           68.9
    0.2197              -16.58         -3.959          46.08          41.64         -4.156         -18.89         -26.07         -18.32         -157.2           51.6          68.89
    0.2366              -16.59         -3.957          46.07          41.65         -4.159         -18.88         -26.12         -18.31         -157.1          51.61          68.88
    0.2535               -16.6         -3.956          46.05          41.65         -4.162         -18.87         -26.17         -18.31         -157.0          51.61          68.87
    0.2704              -16.61         -3.955          46.04          41.65         -4.166         -18.86         -26.22          -18.3         -156.9          51.62          68.87
    0.2873              -16.62         -3.953          46.03          41.65          -4.17         -18.84         -26.28          -18.3         -156.8          51.62          68.86
    0.3042              -16.63         -3.951          46.01          41.66         -4.174         -18.83         -26.34          -18.3         -156.7          51.63          68.84
    0.3211              -16.64         -3.949           46.0          41.66         -4.179         -18.81         -26.41         -18.29         -156.6          51.64          68.83
     0.338              -16.66         -3.947          45.98          41.67         -4.184          -18.8         -26.49         -18.28         -156.5          51.65          68.82
    0.3549              -16.67         -3.945          45.96          41.67         -4.189         -18.78         -26.57         -18.28         -156.3          51.66          68.81
    0.3718              -16.69         -3.942          45.94          41.67         -4.196         -18.75         -26.67         -18.27         -156.2          51.67          68.79
    0.3888              -16.71         -3.939          45.91          41.68         -4.202         -18.73         -26.77         -18.26         -156.0          51.68          68.77
    0.4057              -16.73         -3.936          45.89          41.69          -4.21          -18.7         -26.88         -18.25         -155.8           51.7          68.76
    0.4226              -16.75         -3.932          45.86          41.69         -4.219         -18.67         -27.01         -18.24         -155.5          51.71          68.73
    0.4395              -16.78         -3.928          45.82           41.7         -4.228         -18.64         -27.15         -18.23         -155.3          51.73          68.71
